<svg viewBox="0 0 186.49 156.35" xmlns="http://www.w3.org/2000/svg"><defs><style>.cls-1{fill:none;stroke:#f4333d;stroke-linecap:round;stroke-linejoin:round;stroke-width:5.34px;}</style></defs><g data-name="Layer 2" id="Layer_2"><g data-name="Group 116" id="Group_116"><g data-name="Group 78" id="Group_78"><path d="M109.78,84.07a14,14,0,0,0-4.35-3.32,8.25,8.25,0,0,0-4.87-1.44c-3.11.24-5.42,3.06-8.5,6.62-2.92,3.38-5.6,6.6-5.64,9.59a5.21,5.21,0,0,0,1.33,3.43,19,19,0,0,0,4,3,15.73,15.73,0,0,0,9.21,2.34,11.65,11.65,0,0,0,8.11-4.09C113.34,95.26,113.16,88,109.78,84.07Z" class="cls-1" data-name="Path 252" id="Path_252"></path><path d="M116.09,91c5.7,4.07,13.24,5.22,21.06,5.35l11.32,11.85,12.74-9.5c14.73,2.68,22.23,10.15,22.61,26.87V142.8" class="cls-1" data-name="Path 253" id="Path_253"></path><path d="M95.77,104c6.82,6,16.52,9.9,24.44,12.5V142.8" class="cls-1" data-name="Path 254" id="Path_254"></path><path d="M104.45,80.21l7-6a23.42,23.42,0,1,1,10.26,10.29L111.36,96.45" class="cls-1" data-name="Path 255" id="Path_255"></path><path d="M132.32,47A16.7,16.7,0,1,0,149,63.67,16.7,16.7,0,0,0,132.32,47Z" class="cls-1" data-name="Path 256" id="Path_256"></path><path d="M142.1,85A21.15,21.15,0,1,0,149.74,48" class="cls-1" data-name="Path 257" id="Path_257"></path><line y2="142.8" x2="157.18" y1="128.78" x1="157.18" class="cls-1" data-name="Line 102" id="Line_102"></line><path d="M119.93,141.08A75.5,75.5,0,1,1,138.31,32.52" class="cls-1" data-name="Path 258" id="Path_258"></path><path d="M89.28,152.06a39.37,39.37,0,0,1-11.1,1.6c-29.78,0-53.92-33.8-53.92-75.49S48.4,2.68,78.18,2.68c17.76,0,33.52,12,43.34,30.57" class="cls-1" data-name="Path 259" id="Path_259"></path><path d="M102.2,118.15c-5,21.33-13.89,35.52-24,35.52-15.64,0-28.31-33.8-28.31-75.49S62.54,2.68,78.18,2.68c6.12,0,14.39,20.1,20.41,39.87" class="cls-1" data-name="Path 260" id="Path_260"></path><line y2="80.87" x2="75.78" y1="80.87" x1="2.68" class="cls-1" data-name="Line 103" id="Line_103"></line><line y2="151.4" x2="76.83" y1="3.43" x1="76.83" class="cls-1" data-name="Line 104" id="Line_104"></line><line y2="43.12" x2="99.45" y1="43.12" x1="10.77" class="cls-1" data-name="Line 105" id="Line_105"></line><line y2="115.92" x2="101.84" y1="115.92" x1="13.76" class="cls-1" data-name="Line 106" id="Line_106"></line></g></g></g></svg>