<svg viewBox="0 0 196.54 173.48" xmlns="http://www.w3.org/2000/svg"><defs><style>.cls-1{fill:none;stroke:#f4333d;stroke-linecap:round;stroke-linejoin:round;stroke-width:6.09px;}</style></defs><g data-name="Layer 2" id="Layer_2"><g data-name="Group 116" id="Group_116"><g data-name="Group 78" id="Group_78"><path d="M65.73,51.42A26.6,26.6,0,1,1,70.87,91" class="cls-1" data-name="Path 261" id="Path_261"></path><path d="M165.47,87.39c-7.85,25.76-27.72,39.24-47,45.58.48,3.2.94,6.67,1.53,10.42l4.2,27" class="cls-1" data-name="Path 262" id="Path_262"></path><line y2="170.43" x2="13.93" y1="136.64" x1="11.31" class="cls-1" data-name="Line 107" id="Line_107"></line><path d="M17.07,106.63c-3.54.91-6.28,5.4-9.19,10-4.59,7.3-7.8,12-.61,18.06a9.81,9.81,0,0,0,6.41,2.16,16.42,16.42,0,0,0,13-7.2c5-7,5.74-14.28-.89-19.72C21.68,106.64,19.94,105.9,17.07,106.63Z" class="cls-1" data-name="Path 263" id="Path_263"></path><path d="M40.46,100.73A26.45,26.45,0,1,0,14,74.27,26.45,26.45,0,0,0,40.46,100.73Z" class="cls-1" data-name="Path 264" id="Path_264"></path><path d="M70.77,109.92a72.38,72.38,0,0,1,7.77-1.67c12.47-2,43.9-3.79,58.52-23.61" class="cls-1" data-name="Path 265" id="Path_265"></path><path d="M80.3,170.43s-3.92-29-6.81-38.55C69.81,119.66,58.61,111.24,37.76,112c-4.75.18-9.46.57-9.46.57" class="cls-1" data-name="Path 266" id="Path_266"></path><path d="M193.49,41.17a38.12,38.12,0,1,0-38.12,38.12,38.12,38.12,0,0,0,38.12-38.12Z" class="cls-1" data-name="Path 267" id="Path_267"></path><path d="M141.91,57.67a32.34,32.34,0,0,1,8,2.38c2.89,1.32,7.4,1.95,11.4,1.95,4.58,0,11.7-.55,12.27-6.66,1.7-1.34,2.88-4,2.15-6.12,1.31-1.74,2.08-4.57.56-6.41,3.65-6.3-4.69-9.05-9.86-9.81" class="cls-1" data-name="Path 268" id="Path_268"></path><path d="M157.58,43.66c5.13-2.61,3.49-7.79,2.94-8.84a3.66,3.66,0,0,1,.38-3.65c.47-.86,1.41-2.61,1.83-3.48,2.33-4.86.12-10.4-3.45-10.27-2.4.08-3.08,2.09-3.3,3.69a15.41,15.41,0,0,1-3.5,8.05,43.14,43.14,0,0,0-5.63,7.55C146,38.1,143.93,38.77,142,39" class="cls-1" data-name="Path 269" id="Path_269"></path><rect height="23.5" width="8.02" y="36.07" x="133.96" class="cls-1" data-name="Rectangle 80" id="Rectangle_80"></rect></g></g></g></svg>