<svg viewBox="0 0 218.35 148.53" xmlns="http://www.w3.org/2000/svg"><defs><style>.cls-1{fill:none;stroke:#e73741;stroke-linecap:round;stroke-linejoin:round;stroke-width:5.34px;}</style></defs><g data-name="Layer 2" id="Layer_2"><g data-name="Layer 1" id="Layer_1-2"><g data-name="Group 82" id="Group_82"><path d="M25.08,70.8V84.68a3.73,3.73,0,0,0,3.7,3.78,3.49,3.49,0,0,0,3.39-3.58,1.34,1.34,0,0,0,0-.2V68.24A11.31,11.31,0,0,0,20.84,56.93H14A11.31,11.31,0,0,0,2.68,68.24V84.68a3.49,3.49,0,0,0,3.19,3.77h.2a3.75,3.75,0,0,0,3.7-3.78V70.8" class="cls-1" data-name="Path 212" id="Path_212"></path><path d="M61.44,70.8V84.68a3.74,3.74,0,0,0,3.7,3.78h0a3.49,3.49,0,0,0,3.4-3.58c0-.07,0-.13,0-.2V68.24A11.31,11.31,0,0,0,57.21,56.93H50.37A11.31,11.31,0,0,0,39.05,68.24V84.68a3.49,3.49,0,0,0,3.18,3.77h.2a3.73,3.73,0,0,0,3.7-3.78h0V70.8" class="cls-1" data-name="Path 216" id="Path_216"></path></g><g data-name="Group 81" id="Group_81"><path d="M155.58,113.27a270.21,270.21,0,0,1-40.83,31.4l-2,1.19-2-1.19c-1.39-.85-24.48-16-41-30.27" class="cls-1" data-name="Path 208" id="Path_208"></path><path d="M34.39,52.82a48.09,48.09,0,0,1-1-9.87A40.28,40.28,0,0,1,109,23.68,40.28,40.28,0,0,1,184.63,43a47.29,47.29,0,0,1-.56,7.23" class="cls-1" data-name="Path 209" id="Path_209"></path><path d="M17.42,50.41a8,8,0,1,0-8.05-8,8,8,0,0,0,8.05,8Z" class="cls-1" data-name="Path 210" id="Path_210"></path><path d="M9.77,69.59V87.47h0v15.85" class="cls-1" data-name="Path 211" id="Path_211"></path><path d="M25.08,69.59v33.74" class="cls-1" data-name="Path 213" id="Path_213"></path><path d="M53.79,50.41a8,8,0,1,0-8-8,8.05,8.05,0,0,0,8,8Z" class="cls-1" data-name="Path 214" id="Path_214"></path><path d="M46.13,69.59v33.74" class="cls-1" data-name="Path 215" id="Path_215"></path><path d="M61.44,69.59v33.74" class="cls-1" data-name="Path 217" id="Path_217"></path><path d="M90.15,50.41a8,8,0,1,0-8.05-8A8,8,0,0,0,90.15,50.41Z" class="cls-1" data-name="Path 218" id="Path_218"></path><path d="M82.5,69.59v33.74" class="cls-1" data-name="Path 219" id="Path_219"></path><path d="M97.8,70.8V84.68a3.75,3.75,0,0,0,3.7,3.78,3.49,3.49,0,0,0,3.4-3.58c0-.07,0-.13,0-.2V68.24A11.31,11.31,0,0,0,93.57,56.93H86.73A11.32,11.32,0,0,0,75.41,68.24V84.68a3.49,3.49,0,0,0,3.19,3.77h.2a3.75,3.75,0,0,0,3.7-3.78V70.8" class="cls-1" data-name="Path 220" id="Path_220"></path><path d="M97.8,69.59v33.74" class="cls-1" data-name="Path 221" id="Path_221"></path><path d="M128.21,50.41a8.05,8.05,0,1,0-8.05-8,8,8,0,0,0,8.05,8Z" class="cls-1" data-name="Path 222" id="Path_222"></path><path d="M120.55,69.59V87.47h0v15.85" class="cls-1" data-name="Path 223" id="Path_223"></path><path d="M135.86,70.8V84.68a3.75,3.75,0,0,0,3.7,3.78,3.49,3.49,0,0,0,3.4-3.58c0-.07,0-.13,0-.2V68.24a11.31,11.31,0,0,0-11.31-11.31h-6.85a11.31,11.31,0,0,0-11.31,11.31V84.68a3.49,3.49,0,0,0,3.18,3.77h.2a3.73,3.73,0,0,0,3.7-3.78V70.8" class="cls-1" data-name="Path 224" id="Path_224"></path><path d="M135.86,69.59v33.74" class="cls-1" data-name="Path 225" id="Path_225"></path><path d="M164.57,50.41a8,8,0,1,0-8-8A8,8,0,0,0,164.57,50.41Z" class="cls-1" data-name="Path 226" id="Path_226"></path><path d="M156.92,69.59v33.74" class="cls-1" data-name="Path 227" id="Path_227"></path><path d="M172.23,70.8V84.68a3.73,3.73,0,0,0,3.69,3.78h0a3.49,3.49,0,0,0,3.39-3.58,1.34,1.34,0,0,0,0-.2V68.24A11.31,11.31,0,0,0,168,56.93h-6.84a11.31,11.31,0,0,0-11.31,11.31V84.68A3.49,3.49,0,0,0,153,88.45h.2a3.74,3.74,0,0,0,3.7-3.78h0V70.8" class="cls-1" data-name="Path 228" id="Path_228"></path><path d="M172.23,69.59v33.74" class="cls-1" data-name="Path 229" id="Path_229"></path><path d="M200.94,50.41a8,8,0,1,0-8.05-8A8,8,0,0,0,200.94,50.41Z" class="cls-1" data-name="Path 230" id="Path_230"></path><path d="M193.28,69.59v33.74" class="cls-1" data-name="Path 231" id="Path_231"></path><path d="M208.59,70.8V84.68a3.74,3.74,0,0,0,3.7,3.78,3.49,3.49,0,0,0,3.39-3.58,1.34,1.34,0,0,0,0-.2V68.24a11.31,11.31,0,0,0-11.31-11.31h-6.85A11.31,11.31,0,0,0,186.2,68.24V84.68a3.49,3.49,0,0,0,3.18,3.77h.2a3.74,3.74,0,0,0,3.7-3.78V70.8" class="cls-1" data-name="Path 232" id="Path_232"></path></g></g></g></svg>