<svg viewBox="0 0 215.85 205.09" xmlns="http://www.w3.org/2000/svg"><defs><style>.cls-1{fill:none;stroke:#f4333d;stroke-linecap:round;stroke-linejoin:round;stroke-width:6.09px;}</style></defs><g data-name="Layer 2" id="Layer_2"><g data-name="Layer 1" id="Layer_1-2"><g data-name="Group 118" id="Group_118"><path d="M28,113.3H16A12.92,12.92,0,0,0,3.05,126.23h0v42.88A12.92,12.92,0,0,0,16,182h8.21a1.58,1.58,0,0,1,1.58,1.57v16.87A1.57,1.57,0,0,0,27.33,202a1.53,1.53,0,0,0,1.11-.46l19.1-19.09a1.57,1.57,0,0,1,1.11-.46H89.38a12.91,12.91,0,0,0,12.92-12.92h0" class="cls-1" data-name="Path 84" id="Path_84"></path><path d="M192.57,75.83A20.23,20.23,0,0,1,212.8,96.06v40.68A20.23,20.23,0,0,1,192.57,157H182.5a2.46,2.46,0,0,0-2.46,2.46h0v26.4a2.47,2.47,0,0,1-4.2,1.75L146,157.69a2.47,2.47,0,0,0-1.74-.72H107a20.22,20.22,0,0,1-20.23-20.22h0V96.06A20.22,20.22,0,0,1,107,75.83h0" class="cls-1" data-name="Path 85" id="Path_85"></path><path d="M156.32,38.44A16.51,16.51,0,0,1,164.79,43a16.94,16.94,0,0,1,3.2,4.49" class="cls-1" data-name="Path 86" id="Path_86"></path><path d="M184.26,59.62a34.48,34.48,0,1,0-51.7,29.84.14.14,0,0,1,.07.12v23a15.72,15.72,0,0,0,15.71,15.73h2.87a15.72,15.72,0,0,0,15.73-15.72v-23a.12.12,0,0,1,.07-.12A34.47,34.47,0,0,0,184.26,59.62Z" class="cls-1" data-name="Path 87" id="Path_87"></path><line y2="101.71" x2="166.94" y1="101.71" x1="132.62" class="cls-1" data-name="Line 55" id="Line_55"></line><line y2="58.66" x2="205.39" y1="58.66" x1="197.72" class="cls-1" data-name="Line 56" id="Line_56"></line><line y2="58.66" x2="101.84" y1="58.66" x1="94.17" class="cls-1" data-name="Line 57" id="Line_57"></line><line y2="3.05" x2="149.78" y1="10.72" x1="149.78" class="cls-1" data-name="Line 58" id="Line_58"></line><line y2="19.34" x2="189.1" y1="24.76" x1="183.68" class="cls-1" data-name="Line 59" id="Line_59"></line><line y2="92.56" x2="115.88" y1="97.99" x1="110.46" class="cls-1" data-name="Line 60" id="Line_60"></line><line y2="19.34" x2="110.46" y1="24.76" x1="115.88" class="cls-1" data-name="Line 61" id="Line_61"></line><line y2="92.56" x2="183.68" y1="97.99" x1="189.1" class="cls-1" data-name="Line 62" id="Line_62"></line><line y2="114.02" x2="156" y1="114.02" x1="143.56" class="cls-1" data-name="Line 63" id="Line_63"></line><path d="M155.51,101.72c-2.46-26.59,5.53-36.8,7-40.46a.28.28,0,0,0-.16-.37.3.3,0,0,0-.26,0,10.93,10.93,0,0,1-12.15-.37.29.29,0,0,0-.33,0,10.93,10.93,0,0,1-12.15.37.29.29,0,0,0-.39.11.28.28,0,0,0,0,.25c1.47,3.66,9.46,13.87,7,40.46" class="cls-1" data-name="Path 88" id="Path_88"></path><path d="M63.94,108.1c0,7.7-5.62,14.76-12.54,14.76s-12.54-7.07-12.54-14.76S44.48,94.17,51.4,94.17,63.94,100.41,63.94,108.1Z" class="cls-1" data-name="Path 89" id="Path_89"></path><path d="M73,162.31H29.78A3.82,3.82,0,0,1,26,158.5v-5.21a24.8,24.8,0,0,1,24.8-24.8H52a24.8,24.8,0,0,1,24.8,24.8v5.21A3.81,3.81,0,0,1,73,162.31Z" class="cls-1" data-name="Path 90" id="Path_90"></path><line y2="162.31" x2="37.05" y1="148.99" x1="37.05" class="cls-1" data-name="Line 64" id="Line_64"></line><line y2="162.31" x2="65.75" y1="148.99" x1="65.75" class="cls-1" data-name="Line 65" id="Line_65"></line><line y2="32.55" x2="59.79" y1="34.85" x1="57.49" class="cls-1" data-name="Line 66" id="Line_66"></line><line y2="20.11" x2="72.22" y1="22.42" x1="69.92" class="cls-1" data-name="Line 67" id="Line_67"></line><line y2="32.55" x2="69.92" y1="34.85" x1="72.22" class="cls-1" data-name="Line 68" id="Line_68"></line><line y2="20.11" x2="57.49" y1="22.42" x1="59.79" class="cls-1" data-name="Line 69" id="Line_69"></line><line y2="57.38" x2="19.87" y1="58.01" x1="20.51" class="cls-1" data-name="Line 70" id="Line_70"></line><line y2="66.43" x2="28.92" y1="67.06" x1="29.56" class="cls-1" data-name="Line 71" id="Line_71"></line><line y2="67.06" x2="19.87" y1="66.43" x1="20.51" class="cls-1" data-name="Line 72" id="Line_72"></line><line y2="58.01" x2="28.92" y1="57.38" x1="29.56" class="cls-1" data-name="Line 73" id="Line_73"></line></g></g></g></svg>