<svg xml:space="preserve" style="enable-background:new 0 0 146.8 146.9;" viewBox="0 0 146.8 146.9" y="0px" x="0px" id="Layer_1" version="1.1" xmlns:xlink="http://www.w3.org/1999/xlink" xmlns="http://www.w3.org/2000/svg"><style type="text/css">
	.st0{fill:none;stroke:#E73741;stroke-width:6.09;stroke-linecap:round;stroke-linejoin:round;}
</style><g id="Layer_2_1_"><g id="Layer_1-2"><g id="Group_112"><g id="Group_70"><path d="M44.7,31.1c-3.1-9.5-15.1-11.6-18.5-9.5c-3.9,2.3,4.7,17-4.5,44.2C17.9,77,14.3,88,13.6,97.3      c-2.7,35.9,31.8,54.1,54.6,44.5l33.6-14.5" class="st0" id="Path_128"></path><path d="M117.4,61.6v-48c0-4.8-3.5-9-8-9.6C99.2,3.1,90.1,2.6,81,2.6S62.9,3.1,52.5,4.1      c-4.4,0.6-7.9,4.8-7.9,9.6v103.1c0,4.8,3.5,9,8,9.6c10.2,1,20,1.4,29.9,1.4c8.6,0.1,17.3-0.4,25.9-1.2c4.6-0.7,9.6-3.9,9.6-8.4" class="st0" id="Path_129"></path><path d="M132.7,84.5c-1.2-3-4.1-5-7.4-5c-1,0-2,0.2-3,0.6l-8.5,3.7c-4.1,1.8-6,6.6-4.3,10.7      c1.2,3,4.1,5,7.4,5c1,0,2-0.2,3-0.6l8.5-3.7C132.5,93.3,134.4,88.6,132.7,84.5z" class="st0" id="Path_130"></path><path d="M120,117.6l7.7-3.4c3.7-1.7,5.4-5.9,3.8-9.7c-1.1-2.7-3.7-4.5-6.7-4.5      c-0.9,0-1.8,0.2-2.7,0.5l-7.7,3.4c-3.7,1.7-5.4,5.9-3.8,9.7c1.1,2.7,3.7,4.5,6.7,4.5C118.3,118.2,119.2,118,120,117.6z" class="st0" id="Path_131"></path><path d="M109.6,73.9c1.2,3,4.1,5,7.4,5c1,0,2-0.2,3-0.6l5.8-2.6c4.1-1.8,6-6.6,4.3-10.7      c-1.2-3-4.1-5-7.4-5c-1,0-2,0.2-3,0.6l-5.8,2.6C109.8,65.1,107.9,69.8,109.6,73.9z" class="st0" id="Path_132"></path><line y2="116.1" x2="89.7" y1="116.1" x1="72.3" class="st0" id="Line_80"></line><line y2="12.5" x2="84" y1="12.5" x1="78" class="st0" id="Line_81"></line><line y2="105.7" x2="112.1" y1="105.7" x1="44.7" class="st0" id="Line_82"></line><line y2="21.6" x2="117.4" y1="21.6" x1="44.7" class="st0" id="Line_83"></line><path d="M83,34.3l6.4,19.8h20.9L93.4,66.4l6.4,19.8L83,74L66.1,86.2l6.4-19.8L55.7,54.1h20.9L83,34.3      z" class="st0" id="Path_134"></path></g></g></g></g></svg>