<svg xml:space="preserve" style="enable-background:new 0 0 164.4 145;" viewBox="0 0 164.4 145" y="0px" x="0px" id="Layer_1" version="1.1" xmlns:xlink="http://www.w3.org/1999/xlink" xmlns="http://www.w3.org/2000/svg"><style type="text/css">
	.st0{fill:none;stroke:#E73741;stroke-width:6.09;stroke-linecap:round;stroke-linejoin:round;}
</style><g id="Layer_2_1_"><g id="Layer_1-2"><g id="Group_112"><g id="Group_70"><path d="M82.2,35.5c9,0,16.2-7.3,16.2-16.2S91.1,3.1,82.2,3.1S66,10.4,66,19.3S73.2,35.5,82.2,35.5      L82.2,35.5z" class="st0" id="Path_114"></path><path d="M110.1,65.3c0-13.1-12.5-20.5-27.9-20.5s-27.9,7.5-27.9,20.5" class="st0" id="Path_115"></path><path d="M30.4,87.6c6.3,0,11.5-5.1,11.5-11.5c0-6.3-5.1-11.5-11.5-11.5s-11.5,5.1-11.5,11.5l0,0      C19,82.4,24.1,87.6,30.4,87.6z" class="st0" id="Path_116"></path><path d="M50.2,109.9c0-9.2-8.8-14.5-19.8-14.5s-19.7,5.3-19.7,14.5" class="st0" id="Path_117"></path><path d="M122.4,76.1c0,6.3,5.1,11.5,11.5,11.5s11.5-5.1,11.5-11.5c0-6.3-5.1-11.5-11.5-11.5l0,0l0,0      C127.6,64.7,122.4,69.8,122.4,76.1L122.4,76.1z" class="st0" id="Path_118"></path><path d="M153.6,109.9c0-9.2-8.8-14.5-19.8-14.5c-10.9,0-19.8,5.3-19.8,14.5" class="st0" id="Path_119"></path><path d="M93.6,108.1c0-6.3-5.1-11.5-11.5-11.5c-6.3,0-11.5,5.1-11.5,11.5c0,6.3,5.1,11.5,11.5,11.5      l0,0C88.5,119.6,93.6,114.5,93.6,108.1z" class="st0" id="Path_120"></path><path d="M101.9,142c0-9.2-8.8-14.5-19.8-14.5s-19.8,5.3-19.8,14.5" class="st0" id="Path_121"></path><path d="M129.1,115.6c-5.2,7.6-12.1,13.9-20.2,18.3" class="st0" id="Path_122"></path><path d="M35,52.9c6.1-9.3,14.8-16.6,25.1-20.9" class="st0" id="Path_123"></path><path d="M56.2,134.2c-8.6-4.5-15.9-11-21.2-19.1" class="st0" id="Path_124"></path><path d="M48.6,51.1L35,53l-1.9-13.6" class="st0" id="Path_125"></path><path d="M129.3,52.9c-6.1-9.3-14.8-16.6-25.1-20.9" class="st0" id="Path_126"></path><path d="M115.7,51.1l13.6,1.9l1.9-13.6" class="st0" id="Path_127"></path></g></g></g></g></svg>