<svg xml:space="preserve" style="enable-background:new 0 0 167.7 147.5;" viewBox="0 0 167.7 147.5" y="0px" x="0px" id="Layer_1" version="1.1" xmlns:xlink="http://www.w3.org/1999/xlink" xmlns="http://www.w3.org/2000/svg"><style type="text/css">
	.st0{fill:none;stroke:#F4333D;stroke-width:5.34;stroke-linecap:round;stroke-linejoin:round;}</style><g id="Layer_2_1_"><g id="Group_116"><g id="Group_78"><path d="M46.7,120.6h13.9c0.8,0,1.5,0.7,1.5,1.5v21.1c0,0.8-0.7,1.5-1.5,1.5h0H46.7     c-0.8,0-1.5-0.7-1.5-1.5l0,0l0,0v-21.1C45.1,121.3,45.8,120.6,46.7,120.6z" class="st0" id="Rectangle_76"></path><path d="M78.4,99.9h13.9c0.8,0,1.5,0.7,1.5,1.5v41.8c0,0.8-0.7,1.5-1.5,1.5l0,0H78.4     c-0.8,0-1.5-0.7-1.5-1.5l0,0v-41.8C76.9,100.6,77.6,99.9,78.4,99.9z" class="st0" id="Rectangle_77"></path><path d="M110.2,110.3h13.9c0.8,0,1.5,0.7,1.5,1.5v31.5c0,0.8-0.7,1.5-1.5,1.5l0,0h-13.9     c-0.8,0-1.5-0.7-1.5-1.5l0,0v-31.5C108.7,111,109.4,110.3,110.2,110.3z" class="st0" id="Rectangle_78"></path><path d="M155.9,144.8H142c-0.8,0-1.5-0.7-1.5-1.5c0,0,0,0,0,0l0,0V89.4c0-0.8,0.7-1.5,1.5-1.5     c0,0,0,0,0,0h13.9c0.8,0,1.5,0.7,1.5,1.5l0,0l0,0v53.9C157.4,144.1,156.7,144.8,155.9,144.8C155.9,144.8,155.9,144.8,155.9,144.8     L155.9,144.8z" class="st0" id="Path_246"></path><path d="M126.7,44.6c0,23.2-18.8,42-42,42s-42-18.8-42-42s18.8-42,42-42l0,0     C107.9,2.6,126.7,21.4,126.7,44.6z" class="st0" id="Path_247"></path><path d="M95.4,27.3c0,6.6-4.8,12.7-10.8,12.7s-10.7-6.1-10.7-12.7s4.8-12,10.8-12S95.4,20.7,95.4,27.3     z" class="st0" id="Path_248"></path><path d="M104.2,69.6H65.2c-1.3,0-2.4-1.1-2.4-2.4l0,0l0,0v-3.5c0-10.4,8.5-18.9,18.9-18.9h3.8     c11.5,0,20.9,9.4,20.9,20.9c0,0,0,0,0,0v1.5C106.5,68.5,105.5,69.6,104.2,69.6L104.2,69.6L104.2,69.6z" class="st0" id="Path_249"></path><line y2="69.6" x2="72.4" y1="62.4" x1="72.4" class="st0" id="Line_99"></line><line y2="69.6" x2="97" y1="62.4" x1="97" class="st0" id="Line_100"></line><path d="M14.9,131h13.9c0.8,0,1.5,0.7,1.5,1.5l0,0v10.8c0,0.8-0.7,1.5-1.5,1.5c0,0,0,0,0,0H14.9     c-0.8,0-1.5-0.7-1.5-1.5l0,0v-10.8C13.3,131.7,14,131,14.9,131C14.9,131,14.9,131,14.9,131z" class="st0" id="Rectangle_79"></path><path d="M2.7,120.8L31.5,92l14.7,14.7l13.5-13.5" class="st0" id="Path_250"></path><line y2="74.8" x2="131.4" y1="41.1" x1="165.1" class="st0" id="Line_101"></line><path d="M165,60.5V41.1h-19.4" class="st0" id="Path_251"></path></g></g></g></svg>