<svg viewBox="0 0 207.91 152.36" xmlns="http://www.w3.org/2000/svg"><defs><style>.cls-1{fill:none;stroke:#e73741;stroke-linecap:round;stroke-linejoin:round;stroke-width:5.34px;}</style></defs><g data-name="Layer 2" id="Layer_2"><g data-name="Layer 1" id="Layer_1-2"><g data-name="Group 114" id="Group_114"><g data-name="Group 74" id="Group_74"><path d="M48.92,52.85A25.09,25.09,0,1,0,23.83,27.76h0A25.09,25.09,0,0,0,48.92,52.85Z" class="cls-1" data-name="Path 195" id="Path_195"></path><path d="M2.67,149.69,8.39,87c2.12-17.15,16.08-25.88,29.7-24.67,14.09,1.23,23.31,13,25,26.71,2.7,21.6,18,34.31,37.6,36a11.19,11.19,0,0,1,10.16,12.1c-.53,6.92-6.36,10.16-11.35,10.16h0c-27-1.94-47-17.91-54.9-37.55" class="cls-1" data-name="Path 196" id="Path_196"></path><line y2="149.69" x2="58.18" y1="131.08" x1="59.76" class="cls-1" data-name="Line 95" id="Line_95"></line><path d="M205.24,149.66l-5.6-61.6c-2-16.22-15.52-25.51-29.11-24.19-13.8,1.34-22.86,12.75-24.54,26.2-2.64,21.15-19.53,34.76-41.8,35.86" class="cls-1" data-name="Path 197" id="Path_197"></path><path d="M103.51,146.61c17.25.87,35.44-6.37,45.22-14.87l2.1,17.92" class="cls-1" data-name="Path 198" id="Path_198"></path><path d="M184.5,29.83a24.59,24.59,0,1,0-24.59,24.6,24.58,24.58,0,0,0,24.59-24.6Z" class="cls-1" data-name="Path 199" id="Path_199"></path><path d="M145.11,95c-2.1-2.7-8-6.06-12.45-7.1l-7.43,6.74-7.41-6.72c-6.44,1.19-13.76,7.07-13.76,14.76,0-7.73-8-13.57-13.86-14.78l-7.43,6.74-7.42-6.72a23.67,23.67,0,0,0-11.22,6.7" class="cls-1" data-name="Path 200" id="Path_200"></path><path d="M69.94,66.71a12.89,12.89,0,1,0,12.9-12.9,12.89,12.89,0,0,0-12.9,12.9Z" class="cls-1" data-name="Path 201" id="Path_201"></path><path d="M125.3,79.59a12.89,12.89,0,1,0-12.9-12.88,12.9,12.9,0,0,0,12.9,12.88Z" class="cls-1" data-name="Path 202" id="Path_202"></path></g></g></g></g></svg>