<svg xml:space="preserve" style="enable-background:new 0 0 167.7 147.5;" viewBox="0 0 167.7 147.5" y="0px" x="0px" id="Layer_1" version="1.1" xmlns:xlink="http://www.w3.org/1999/xlink" xmlns="http://www.w3.org/2000/svg"><style type="text/css">
	.st0{fill:none;stroke:#E73741;stroke-width:5.34;stroke-linecap:round;stroke-linejoin:round;}
</style><g id="Layer_2_1_"><g id="Layer_1-2"><g id="Group_74"><path d="M98,71.3H27.1V3h113.7v68.4h-8" class="st0" id="Path_182"></path><path d="M115.8,38.1c-4.8,0-8.8-3.9-8.8-8.9s3.9-8.9,8.8-8.9c4.8,0,8.8,3.9,8.8,8.9     S120.6,38.1,115.8,38.1L115.8,38.1z" class="st0" id="Path_183"></path><path d="M106.3,80.2v-11c-2-1.1-3.2-3.2-3.2-5.4V51.5c0-3.9,2.9-7.1,6.8-7.4l6.1,3.8l6.1-3.8     c3.9,0.2,6.8,3.5,6.8,7.4v12.4c0,2.3-1.3,4.3-3.2,5.4v18.3" class="st0" id="Path_184"></path><path d="M61.7,104c6.5,0,11.8-5.3,11.8-12c0-6.7-5.2-12-11.8-12c-6.5,0-11.8,5.3-11.8,12l0,0l0,0     C50.1,98.7,55.3,104,61.7,104L61.7,104z" class="st0" id="Path_185"></path><path d="M106.6,104c6.5,0,11.8-5.3,11.8-12c0-6.7-5.2-12-11.8-12s-11.8,5.3-11.8,12l0,0l0,0     C94.8,98.7,100.1,104,106.6,104z" class="st0" id="Path_186"></path><path d="M104,144.5c0-11.2-9-15.3-20.1-15.3s-20.1,4-20.1,15.3" class="st0" id="Path_187"></path><path d="M84,122.4c6.5,0,11.8-5.3,11.8-12c0-6.6-5.2-12-11.8-12s-11.8,5.3-11.8,12l0,0l0,0     C72.2,117.1,77.4,122.4,84,122.4z" class="st0" id="Path_188"></path><path d="M149,144.5c0-11.2-9-15.3-20.1-15.3s-20.1,4-20.1,15.3" class="st0" id="Path_189"></path><path d="M129,122.4c6.5,0,11.8-5.3,11.8-12c0-6.6-5.2-12-11.8-12c-6.5,0-11.8,5.3-11.8,12l0,0l0,0     C117.2,117.1,122.4,122.4,129,122.4z" class="st0" id="Path_190"></path><path d="M58.9,144.5c0-11.2-9-15.3-20.1-15.3s-20.1,4-20.1,15.3" class="st0" id="Path_191"></path><path d="M38.8,98.6c-6.5,0-11.8,5.3-11.8,12c0,6.6,5.2,12,11.8,12c6.5,0,11.8-5.3,11.8-12     C50.6,103.9,45.4,98.6,38.8,98.6z" class="st0" id="Path_192"></path><path d="M72.4,112.8c-3.4-1.2-7-1.7-10.6-1.7c-4-0.1-7.8,0.5-11.5,2" class="st0" id="Path_193"></path><path d="M117.8,112.8c-3.4-1.2-7-1.7-10.6-1.7c-4-0.1-7.8,0.5-11.5,2" class="st0" id="Path_194"></path></g></g></g></svg>