<svg xml:space="preserve" style="enable-background:new 0 0 176.5 144.6;" viewBox="0 0 176.5 144.6" y="0px" x="0px" id="Layer_1" version="1.1" xmlns:xlink="http://www.w3.org/1999/xlink" xmlns="http://www.w3.org/2000/svg"><style type="text/css">
	.st0{fill:none;stroke:#E73741;stroke-width:6.09;stroke-linecap:round;stroke-linejoin:round;}
</style><g id="Layer_2_1_"><g id="Layer_1-2"><g id="Group_66"><path d="M93.6,4.1c-5.9,0-10.6,4.8-10.6,10.6l0,0l0,0V39c0,5.9,4.8,10.6,10.6,10.6h2.2c0.6,0,1,0.5,1,1     l0,0v7.8c0,0.6,0.5,1,1,1c0.3,0,0.5-0.1,0.7-0.3l11-9.3c0.2-0.2,0.5-0.3,0.7-0.3h15.4c5.9,0,10.6-4.8,10.6-10.6V14.7     c0-5.9-4.8-10.6-10.6-10.6l0,0H93.6z" class="st0" id="Path_78"></path><path d="M148.7,61.5c5.6,0,10.1,4.5,10.1,10.1c0,0,0,0,0,0l0,0v22.5c0,5.6-4.5,10.1-10.1,10.1h-1.9     c-0.5,0-1,0.4-1,1l0,0v7.3c0,0.5-0.4,1-1,1c-0.3,0-0.5-0.1-0.7-0.3l-10.3-8.7c-0.2-0.2-0.4-0.3-0.7-0.3h-14.3     c-5.6,0-10.1-4.5-10.1-10.1c0,0,0,0,0,0V71.6c0-5.6,4.5-10.1,10.1-10.1c0,0,0,0,0,0H148.7z" class="st0" id="Path_79"></path><line y2="4.6" x2="54.7" y1="2.8" x1="53" class="st0" id="Line_44"></line><line y2="14.1" x2="64.2" y1="12.3" x1="62.5" class="st0" id="Line_45"></line><line y2="12.3" x2="54.7" y1="14.1" x1="53" class="st0" id="Line_46"></line><line y2="2.8" x2="64.2" y1="4.6" x1="62.5" class="st0" id="Line_47"></line><line y2="18.6" x2="36.8" y1="19.1" x1="36.4" class="st0" id="Line_48"></line><line y2="25.5" x2="29.9" y1="26" x1="29.4" class="st0" id="Line_49"></line><line y2="18.6" x2="29.4" y1="19.1" x1="29.9" class="st0" id="Line_50"></line><line y2="25.5" x2="36.4" y1="26" x1="36.8" class="st0" id="Line_51"></line><path d="M109.2,112.7c-2.7,7-9.5,11.6-17,11.6H63.3c-0.4,0-0.8,0.2-1.1,0.5l-16,16     c-1.3,1.3-3.4,1.3-4.8,0c-0.6-0.6-1-1.5-1-2.4v-12.5c0-0.9-0.7-1.6-1.6-1.6H36c-10.1,0-18.2-8.1-18.2-18.2V57.4     c0-10.1,8.1-18.2,18.2-18.2h36.2" class="st0" id="Path_80"></path><path d="M109.5,31.7v-0.5c0-1.6,1-3,2.5-3.5c2.6-1,4.3-3.5,4.2-6.2c-0.2-3.5-3-6.2-6.5-6.3     c-1.9-0.1-3.8,0.7-5.1,2.1c-0.7,0.7-1.2,1.5-1.5,2.4" class="st0" id="Path_81"></path><line y2="38.8" x2="109.5" y1="39" x1="109.5" class="st0" id="Line_52"></line><line y2="73.7" x2="133.5" y1="84.6" x1="133.5" class="st0" id="Line_53"></line><line y2="92.6" x2="133.5" y1="92.7" x1="133.5" class="st0" id="Line_54"></line><path d="M73.1,62.7c0-4.2-3.4-7.6-7.6-7.6s-7.6,3.4-7.6,7.6c0,4.2,3.4,7.6,7.6,7.6     C69.7,70.4,73.1,67,73.1,62.7C73.1,62.8,73.1,62.7,73.1,62.7z" class="st0" id="Path_82"></path><path d="M59.8,84.7v16.5h-0.3c-1.9,0-3.5,1.6-3.5,3.5c0,0,0,0,0,0l0,0v0c0,1.9,1.6,3.5,3.5,3.5     l12.8,0.1c1.9,0,3.5-1.6,3.5-3.5c0,0,0,0,0,0l0,0l0,0c0-1.9-1.6-3.5-3.5-3.5h0h-0.3V80.1c0-1.3-1-2.3-2.3-2.3c0,0,0,0,0,0     l-10.2-0.1c-1.9-0.1-3.6,1.3-3.7,3.3c-0.1,1.9,1.3,3.6,3.3,3.7c0.1,0,0.2,0,0.3,0L59.8,84.7L59.8,84.7z" class="st0" id="Path_83"></path></g></g></g></svg>