<svg xml:space="preserve" style="enable-background:new 0 0 158.9 144.6;" viewBox="0 0 158.9 144.6" y="0px" x="0px" id="Layer_1" version="1.1" xmlns:xlink="http://www.w3.org/1999/xlink" xmlns="http://www.w3.org/2000/svg"><style type="text/css">
	.st0{fill:none;stroke:#E73741;stroke-width:5.34;stroke-linecap:round;stroke-linejoin:round;}
</style><g id="Layer_2_1_"><g id="Layer_1-2"><g id="Group_66"><path d="M97.5,10.2c0,4.1-3.3,7.4-7.4,7.4s-7.4-3.3-7.4-7.4s3.3-7.4,7.4-7.4l0,0     C94.2,2.8,97.5,6.1,97.5,10.2C97.5,10.2,97.5,10.2,97.5,10.2z" class="st0" id="Path_68"></path><path d="M51.4,51.3c0,3.7-3,6.8-6.8,6.8c-3.7,0-6.8-3-6.8-6.8c0-3.7,3-6.8,6.8-6.8     C48.3,44.6,51.4,47.6,51.4,51.3C51.4,51.3,51.4,51.3,51.4,51.3z" class="st0" id="Path_69"></path><path d="M23.3,19.4c0,3.7-3,6.8-6.8,6.8c-3.7,0-6.8-3-6.8-6.8c0-3.7,3-6.8,6.8-6.8     C20.2,12.6,23.3,15.6,23.3,19.4C23.3,19.4,23.3,19.4,23.3,19.4z" class="st0" id="Path_70"></path><path d="M26.4,91.7c0,4.6-3.7,8.4-8.4,8.4s-8.4-3.7-8.4-8.4c0-4.6,3.7-8.4,8.4-8.4c0,0,0,0,0,0l0,0     C22.7,83.3,26.4,87.1,26.4,91.7z" class="st0" id="Path_71"></path><line y2="46.3" x2="40.2" y1="24.4" x1="21" class="st0" id="Line_34"></line><line y2="11.2" x2="82.8" y1="18.5" x1="23.2" class="st0" id="Line_35"></line><line y2="12.3" x2="96.3" y1="23.2" x1="133.2" class="st0" id="Line_36"></line><line y2="123.9" x2="75.4" y1="133.7" x1="71.2" class="st0" id="Line_37"></line><line y2="90" x2="26.3" y1="85.6" x1="47.8" class="st0" id="Line_38"></line><line y2="57" x2="40.9" y1="84.7" x1="22.7" class="st0" id="Line_39"></line><line y2="15.2" x2="84.6" y1="46.8" x1="49.6" class="st0" id="Line_40"></line><line y2="37.2" x2="92.4" y1="17.6" x1="90.7" class="st0" id="Line_41"></line><line y2="135.2" x2="63.7" y1="97.4" x1="24.1" class="st0" id="Line_42"></line><path d="M79.7,86.7c-1.1-1.3-2.5-2.4-4.1-3.1c-1.3-0.9-2.9-1.4-4.5-1.3c-2.9,0.2-5.1,2.9-8,6.2     c-2.7,3.2-5.2,6.2-5.3,9c0,1.2,0.5,2.3,1.2,3.2c1.1,1.1,2.4,2,3.8,2.8c2.6,1.6,5.6,2.4,8.6,2.2c2.9-0.2,5.7-1.6,7.6-3.8     C83.1,97.2,82.9,90.4,79.7,86.7z" class="st0" id="Path_72"></path><path d="M85.6,93.2c5.3,3.8,12.4,4.9,19.7,5l10.6,11.1l11.9-8.9c13.8,2.5,20.8,9.5,21.2,25.2v16.1" class="st0" id="Path_73"></path><path d="M73.1,105.4c6.4,5.6,15.4,9.3,22.9,11.7v24.6" class="st0" id="Path_74"></path><path d="M74.8,83l6.5-5.6c-5.4-10.8-1.1-24,9.7-29.5s24-1.1,29.5,9.7c5.4,10.8,1.1,24-9.7,29.5     c-6.2,3.1-13.6,3.1-19.8-0.1l-9.7,11.2" class="st0" id="Path_75"></path><path d="M100.8,51.9c-8.6,0-15.6,7-15.6,15.7s7,15.6,15.7,15.6c8.6,0,15.6-7,15.6-15.6     C116.5,59,109.5,51.9,100.8,51.9C100.9,51.9,100.9,51.9,100.8,51.9z" class="st0" id="Path_76"></path><path d="M110,87.5c8.6,6.8,21,5.4,27.9-3.1c6.8-8.6,5.4-21-3.1-27.9c-4.9-3.9-11.5-5.3-17.6-3.6" class="st0" id="Path_77"></path><line y2="141.7" x2="130.6" y1="128.6" x1="130.6" class="st0" id="Line_43"></line></g></g></g></svg>