<svg viewBox="0 0 163.95 156.06" xmlns="http://www.w3.org/2000/svg"><defs><style>.cls-1{fill:none;stroke:#e73741;stroke-linecap:round;stroke-linejoin:round;stroke-width:6.09px;}</style></defs><g data-name="Layer 2" id="Layer_2"><g data-name="Layer 1" id="Layer_1-2"><g data-name="Group 112" id="Group_112"><g data-name="Group 70" id="Group_70"><path d="M148.18,73.91,84,22.11a3.43,3.43,0,0,0-4.28,0L15.62,73.91a7.8,7.8,0,0,1-9.8-12.13L63.88,14.85,75.93,5.11a9.31,9.31,0,0,1,11.69,0L117,28.84a1.21,1.21,0,0,0,1.72-.18,1.26,1.26,0,0,0,.27-.77V14a3,3,0,0,1,3-3h16.27a3,3,0,0,1,3,3h0V47.54a1.24,1.24,0,0,0,.45,1L158,61.78a7.8,7.8,0,0,1,1.12,11,7.51,7.51,0,0,1-1.05,1.06l0,0A7.79,7.79,0,0,1,148.18,73.91Z" class="cls-1" data-name="Path 109" id="Path_109"></path><path d="M88.14,87.5a16.6,16.6,0,1,0-16.6-16.6h0A16.59,16.59,0,0,0,88.12,87.5Z" class="cls-1" data-name="Path 110" id="Path_110"></path><path d="M85.2,115.11,91,135.54l2.63,9.22L96,153H47.23l-2.66-9.36-2.42-8.5-5.69-20Z" class="cls-1" data-name="Path 111" id="Path_111"></path><path d="M88.71,127.17h12.71a1.89,1.89,0,0,0,1.89-1.88h0V118.4" class="cls-1" data-name="Path 112" id="Path_112"></path><path d="M66.21,102.92a17.56,17.56,0,0,1,9.83-3h24.19a17.64,17.64,0,0,1,17.63,17.62h0v14a10.1,10.1,0,0,1-10.1,10.1h-15" class="cls-1" data-name="Path 113" id="Path_113"></path></g></g></g></g></svg>